# xmcd
#
# Track frame offsets:
# 150
# 16155
# 29942
# 47828
# 66143
# 86527
# 101511
# 122357
# 143145
# 161580
# 188578
# 205034
# 222297
# 243941
# 262160
# 281210
# 300536
#
# Disc length: 4296 seconds
#
# Revision: 0
# Processed by: cddbd v1.5.2PL0 Copyright (c) Steve Scherf et al.
# Submitted via: Axialis_AX_CDPlayer 2.6
#
DISCID=f110c611
DTITLE=SugarLand - Love On The Inside
DYEAR=1900
DGENRE=
TTITLE0=All I Want To Do
TTITLE1=It Happens
TTITLE2=We Run
TTITLE3=Joey
TTITLE4=Love
TTITLE5=Genevieve
TTITLE6=Already Gone
TTITLE7=Keep You
TTITLE8=Take Me As I Am
TTITLE9=What I'd give
TTITLE10=Steve Earle
TTITLE11=Very Last Country Song
TTITLE12=Fall Into Me
TTITLE13=Operation Working Vacation
TTITLE14=Wishing
TTITLE15=Life In A Northern Town (Live)
TTITLE16=Come On Get Higher (Live)
EXTD=www.sugarlandfan.com
EXTT0=
EXTT1=
EXTT2=
EXTT3=
EXTT4=
EXTT5=
EXTT6=
EXTT7=
EXTT8=
EXTT9=
EXTT10=
EXTT11=
EXTT12=
EXTT13=
EXTT14=
EXTT15=With Little Big Town and Jake Owen
EXTT16=
PLAYORDER=
